HIERARCHY
ROOT mixamorig:Hips
{
	OFFSET -0.000008 104.274872 1.554316
	CHANNELS 6 Xposition Yposition Zposition Xrotation Yrotation Zrotation
	JOINT mixamorig:Spine
	{
		OFFSET -0.000005 10.181595 0.131519
		CHANNELS 6 Xposition Yposition Zposition Xrotation Yrotation Zrotation
		JOINT mixamorig:Spine1
		{
			OFFSET -0.000000 9.893959 -1.470707
			CHANNELS 6 Xposition Yposition Zposition Xrotation Yrotation Zrotation
			JOINT mixamorig:Spine2
			{
				OFFSET -0.000000 9.220757 -1.370641
				CHANNELS 6 Xposition Yposition Zposition Xrotation Yrotation Zrotation
				JOINT mixamorig:Neck
				{
					OFFSET 0.000001 16.740417 -2.049036
					CHANNELS 6 Xposition Yposition Zposition Xrotation Yrotation Zrotation
					JOINT mixamorig:Head
					{
						OFFSET 0.000000 9.617874 1.685006
						CHANNELS 6 Xposition Yposition Zposition Xrotation Yrotation Zrotation
						JOINT mixamorig:HeadTop_End
						{
							OFFSET 0.000002 22.037354 7.501101
							CHANNELS 6 Xposition Yposition Zposition Xrotation Yrotation Zrotation
							End Site
							{
								OFFSET 0.000168 2310.654297 -282.823242
							}
						}
					}
				}
				JOINT mixamorig:RightShoulder
				{
					OFFSET -4.569970 11.014908 -2.160885
					CHANNELS 6 Xposition Yposition Zposition Xrotation Yrotation Zrotation
					JOINT mixamorig:RightArm
					{
						OFFSET -10.592851 -0.524811 -2.232101
						CHANNELS 6 Xposition Yposition Zposition Xrotation Yrotation Zrotation
						JOINT mixamorig:RightForeArm
						{
							OFFSET -27.841511 0.000031 -0.000004
							CHANNELS 6 Xposition Yposition Zposition Xrotation Yrotation Zrotation
							JOINT mixamorig:RightHand
							{
								OFFSET -28.328831 -0.000015 0.000015
								CHANNELS 6 Xposition Yposition Zposition Xrotation Yrotation Zrotation
								JOINT mixamorig:RightHandThumb1
								{
									OFFSET -2.464806 -1.573990 2.681852
									CHANNELS 6 Xposition Yposition Zposition Xrotation Yrotation Zrotation
									JOINT mixamorig:RightHandThumb2
									{
										OFFSET -3.215179 -1.872803 1.924282
										CHANNELS 6 Xposition Yposition Zposition Xrotation Yrotation Zrotation
										JOINT mixamorig:RightHandThumb3
										{
											OFFSET -2.654831 -1.527969 1.512609
											CHANNELS 6 Xposition Yposition Zposition Xrotation Yrotation Zrotation
											JOINT mixamorig:RightHandThumb4
											{
												OFFSET -2.018814 -1.152008 1.108052
												CHANNELS 6 Xposition Yposition Zposition Xrotation Yrotation Zrotation
												End Site
												{
													OFFSET -188.809540 -114.533607 132.431396
												}
											}
										}
									}
								}
								JOINT mixamorig:RightHandIndex1
								{
									OFFSET -9.108284 -0.517868 2.259835
									CHANNELS 6 Xposition Yposition Zposition Xrotation Yrotation Zrotation
									JOINT mixamorig:RightHandIndex2
									{
										OFFSET -3.699989 0.000000 0.001215
										CHANNELS 6 Xposition Yposition Zposition Xrotation Yrotation Zrotation
										JOINT mixamorig:RightHandIndex3
										{
											OFFSET -2.850006 0.000031 -0.000522
											CHANNELS 6 Xposition Yposition Zposition Xrotation Yrotation Zrotation
											JOINT mixamorig:RightHandIndex4
											{
												OFFSET -2.772186 -0.000015 -0.000020
												CHANNELS 6 Xposition Yposition Zposition Xrotation Yrotation Zrotation
												End Site
												{
													OFFSET -277.218445 0.000000 -0.050231
												}
											}
										}
									}
								}
								JOINT mixamorig:RightHandMiddle1
								{
									OFFSET -9.532516 -0.000031 -0.000023
									CHANNELS 6 Xposition Yposition Zposition Xrotation Yrotation Zrotation
									JOINT mixamorig:RightHandMiddle2
									{
										OFFSET -3.700005 -0.000015 0.003713
										CHANNELS 6 Xposition Yposition Zposition Xrotation Yrotation Zrotation
										JOINT mixamorig:RightHandMiddle3
										{
											OFFSET -2.949974 0.000015 -0.002054
											CHANNELS 6 Xposition Yposition Zposition Xrotation Yrotation Zrotation
											JOINT mixamorig:RightHandMiddle4
											{
												OFFSET -2.946640 0.000000 -0.000156
												CHANNELS 6 Xposition Yposition Zposition Xrotation Yrotation Zrotation
												End Site
												{
													OFFSET -294.664337 0.000000 -0.113670
												}
											}
										}
									}
								}
								JOINT mixamorig:RightHandRing1
								{
									OFFSET -9.103600 -0.043076 -1.865134
									CHANNELS 6 Xposition Yposition Zposition Xrotation Yrotation Zrotation
									JOINT mixamorig:RightHandRing2
									{
										OFFSET -3.379288 0.000000 -0.001055
										CHANNELS 6 Xposition Yposition Zposition Xrotation Yrotation Zrotation
										JOINT mixamorig:RightHandRing3
										{
											OFFSET -2.889687 -0.000015 0.000379
											CHANNELS 6 Xposition Yposition Zposition Xrotation Yrotation Zrotation
											JOINT mixamorig:RightHandRing4
											{
												OFFSET -2.638809 -0.000015 0.000941
												CHANNELS 6 Xposition Yposition Zposition Xrotation Yrotation Zrotation
												End Site
												{
													OFFSET -263.880371 0.000000 0.516020
												}
											}
										}
									}
								}
								JOINT mixamorig:RightHandPinky1
								{
									OFFSET -8.076683 -0.486710 -3.806280
									CHANNELS 6 Xposition Yposition Zposition Xrotation Yrotation Zrotation
									JOINT mixamorig:RightHandPinky2
									{
										OFFSET -3.600014 -0.000015 -0.003747
										CHANNELS 6 Xposition Yposition Zposition Xrotation Yrotation Zrotation
										JOINT mixamorig:RightHandPinky3
										{
											OFFSET -2.099983 0.000000 -0.005739
											CHANNELS 6 Xposition Yposition Zposition Xrotation Yrotation Zrotation
											JOINT mixamorig:RightHandPinky4
											{
												OFFSET -2.115768 -0.000031 -0.003680
												CHANNELS 6 Xposition Yposition Zposition Xrotation Yrotation Zrotation
												End Site
												{
													OFFSET -211.577087 0.000000 -0.350686
												}
											}
										}
									}
								}
							}
						}
					}
				}
				JOINT mixamorig:LeftShoulder
				{
					OFFSET 4.570447 11.014725 -2.160855
					CHANNELS 6 Xposition Yposition Zposition Xrotation Yrotation Zrotation
					JOINT mixamorig:LeftArm
					{
						OFFSET 10.592371 -0.524597 -2.232119
						CHANNELS 6 Xposition Yposition Zposition Xrotation Yrotation Zrotation
						JOINT mixamorig:LeftForeArm
						{
							OFFSET 27.841532 -0.000031 0.000026
							CHANNELS 6 Xposition Yposition Zposition Xrotation Yrotation Zrotation
							JOINT mixamorig:LeftHand
							{
								OFFSET 28.328846 -0.000061 0.000022
								CHANNELS 6 Xposition Yposition Zposition Xrotation Yrotation Zrotation
								JOINT mixamorig:LeftHandThumb1
								{
									OFFSET 2.466141 -1.576172 2.681732
									CHANNELS 6 Xposition Yposition Zposition Xrotation Yrotation Zrotation
									JOINT mixamorig:LeftHandThumb2
									{
										OFFSET 3.217812 -1.872070 1.916482
										CHANNELS 6 Xposition Yposition Zposition Xrotation Yrotation Zrotation
										JOINT mixamorig:LeftHandThumb3
										{
											OFFSET 2.656029 -1.528778 1.514513
											CHANNELS 6 Xposition Yposition Zposition Xrotation Yrotation Zrotation
											JOINT mixamorig:LeftHandThumb4
											{
												OFFSET 2.020889 -1.154053 1.115139
												CHANNELS 6 Xposition Yposition Zposition Xrotation Yrotation Zrotation
												End Site
												{
													OFFSET 190.885437 -115.081749 130.048782
												}
											}
										}
									}
								}
								JOINT mixamorig:LeftHandIndex1
								{
									OFFSET 9.109314 -0.518021 2.259871
									CHANNELS 6 Xposition Yposition Zposition Xrotation Yrotation Zrotation
									JOINT mixamorig:LeftHandIndex2
									{
										OFFSET 3.699989 0.000000 -0.000322
										CHANNELS 6 Xposition Yposition Zposition Xrotation Yrotation Zrotation
										JOINT mixamorig:LeftHandIndex3
										{
											OFFSET 2.850006 0.000000 0.000352
											CHANNELS 6 Xposition Yposition Zposition Xrotation Yrotation Zrotation
											JOINT mixamorig:LeftHandIndex4
											{
												OFFSET 2.774864 -0.000031 -0.000027
												CHANNELS 6 Xposition Yposition Zposition Xrotation Yrotation Zrotation
												End Site
												{
													OFFSET 277.486267 0.000000 -0.009857
												}
											}
										}
									}
								}
								JOINT mixamorig:LeftHandMiddle1
								{
									OFFSET 9.533394 0.000061 0.000044
									CHANNELS 6 Xposition Yposition Zposition Xrotation Yrotation Zrotation
									JOINT mixamorig:LeftHandMiddle2
									{
										OFFSET 3.699989 -0.000015 -0.000231
										CHANNELS 6 Xposition Yposition Zposition Xrotation Yrotation Zrotation
										JOINT mixamorig:LeftHandMiddle3
										{
											OFFSET 2.949997 -0.000015 -0.000059
											CHANNELS 6 Xposition Yposition Zposition Xrotation Yrotation Zrotation
											JOINT mixamorig:LeftHandMiddle4
											{
												OFFSET 2.952896 0.000031 0.000063
												CHANNELS 6 Xposition Yposition Zposition Xrotation Yrotation Zrotation
												End Site
												{
													OFFSET 295.289337 0.000000 0.022810
												}
											}
										}
									}
								}
								JOINT mixamorig:LeftHandRing1
								{
									OFFSET 9.104523 -0.042999 -1.865074
									CHANNELS 6 Xposition Yposition Zposition Xrotation Yrotation Zrotation
									JOINT mixamorig:LeftHandRing2
									{
										OFFSET 3.150009 -0.000031 0.000043
										CHANNELS 6 Xposition Yposition Zposition Xrotation Yrotation Zrotation
										JOINT mixamorig:LeftHandRing3
										{
											OFFSET 2.949982 -0.000015 0.000040
											CHANNELS 6 Xposition Yposition Zposition Xrotation Yrotation Zrotation
											JOINT mixamorig:LeftHandRing4
											{
												OFFSET 2.644348 0.000000 0.000057
												CHANNELS 6 Xposition Yposition Zposition Xrotation Yrotation Zrotation
												End Site
												{
													OFFSET 264.434631 0.000000 0.012105
												}
											}
										}
									}
								}
								JOINT mixamorig:LeftHandPinky1
								{
									OFFSET 8.077789 -0.486847 -3.806259
									CHANNELS 6 Xposition Yposition Zposition Xrotation Yrotation Zrotation
									JOINT mixamorig:LeftHandPinky2
									{
										OFFSET 3.599953 0.000031 0.014727
										CHANNELS 6 Xposition Yposition Zposition Xrotation Yrotation Zrotation
										JOINT mixamorig:LeftHandPinky3
										{
											OFFSET 2.100021 0.000015 0.007705
											CHANNELS 6 Xposition Yposition Zposition Xrotation Yrotation Zrotation
											JOINT mixamorig:LeftHandPinky4
											{
												OFFSET 2.125504 0.000031 0.007517
												CHANNELS 6 Xposition Yposition Zposition Xrotation Yrotation Zrotation
												End Site
												{
													OFFSET 212.550781 0.000000 0.625752
												}
											}
										}
									}
								}
							}
						}
					}
				}
			}
		}
	}
	JOINT mixamorig:RightUpLeg
	{
		OFFSET -8.207787 -6.751648 -1.599560
		CHANNELS 6 Xposition Yposition Zposition Xrotation Yrotation Zrotation
		JOINT mixamorig:RightLeg
		{
			OFFSET -0.000002 -44.370117 0.345942
			CHANNELS 6 Xposition Yposition Zposition Xrotation Yrotation Zrotation
			JOINT mixamorig:RightFoot
			{
				OFFSET 0.000003 -44.423679 -3.043532
				CHANNELS 6 Xposition Yposition Zposition Xrotation Yrotation Zrotation
				JOINT mixamorig:RightToeBase
				{
					OFFSET -0.000002 -8.728671 10.710558
					CHANNELS 6 Xposition Yposition Zposition Xrotation Yrotation Zrotation
					JOINT mixamorig:RightToe_End
					{
						OFFSET -0.000001 -0.000679 9.278119
						CHANNELS 6 Xposition Yposition Zposition Xrotation Yrotation Zrotation
						End Site
						{
							OFFSET 0.000000 -0.067690 927.812134
						}
					}
				}
			}
		}
	}
	JOINT mixamorig:LeftUpLeg
	{
		OFFSET 8.207793 -6.751686 -1.599556
		CHANNELS 6 Xposition Yposition Zposition Xrotation Yrotation Zrotation
		JOINT mixamorig:LeftLeg
		{
			OFFSET -0.000004 -44.370014 0.346954
			CHANNELS 6 Xposition Yposition Zposition Xrotation Yrotation Zrotation
			JOINT mixamorig:LeftFoot
			{
				OFFSET -0.000001 -44.423672 -3.044401
				CHANNELS 6 Xposition Yposition Zposition Xrotation Yrotation Zrotation
				JOINT mixamorig:LeftToeBase
				{
					OFFSET -0.000002 -8.728669 10.710558
					CHANNELS 6 Xposition Yposition Zposition Xrotation Yrotation Zrotation
					JOINT mixamorig:LeftToe_End
					{
						OFFSET -0.000003 -0.000679 9.278133
						CHANNELS 6 Xposition Yposition Zposition Xrotation Yrotation Zrotation
						End Site
						{
							OFFSET 0.000000 -0.068021 927.813477
						}
					}
				}
			}
		}
	}
}
MOTION
Frames: 3
Frame Time: 0.033333
0.000006 104.270477 1.554256 0.000010 0.000003 -0.000113 -0.000005 10.181587 0.131522 0.000001 -0.000003 0.000084 -0.000000 9.893967 -1.470711 0.000001 0.000000 -0.000000 -0.000000 9.220802 -1.370642 0.000000 -0.000000 -0.000000 0.000001 16.740433 -2.049030 0.000000 -0.000000 -0.000000 0.000000 9.617859 1.685014 0.000000 0.000000 0.000000 0.000002 22.037384 7.501101 0.000000 -0.000000 0.000000 -4.569968 11.014880 -2.160881 0.000008 0.000001 -0.000038 -10.592758 -0.524836 -2.231731 80.909219 70.223197 -61.889922 -27.841482 -0.000003 0.000596 34.252101 104.522959 -43.418006 -28.328829 0.000037 0.000029 -0.000322 -0.000045 0.000007 -2.464463 -1.573642 2.682227 -58.225928 -176.703278 -44.693114 -3.215125 -1.872416 1.924573 134.721124 29.996087 73.546849 -2.654947 -1.527898 1.513041 158.701290 28.505485 -16.079867 -2.018827 -1.151995 1.108061 -0.000004 -0.000005 0.000002 -9.108399 -0.517663 2.260282 129.750522 22.461989 -45.998100 -3.700060 0.000210 0.001645 124.348238 21.868143 -40.158975 -2.850150 0.000292 -0.000134 121.318121 18.200992 -31.809677 -2.772161 -0.000018 -0.000020 0.000000 -0.000001 -0.000001 -9.532609 0.000213 0.000379 119.863823 21.114761 -35.940794 -3.700089 0.000300 0.004054 112.245075 15.509963 -22.786399 -2.950063 0.000321 -0.001737 110.743123 14.170816 -20.396183 -2.946626 0.000001 -0.000158 -0.000001 0.000000 0.000000 -9.103704 -0.042798 -1.864727 116.929383 21.798590 -34.768771 -3.379344 0.000305 -0.000735 108.762382 9.589510 -13.379968 -2.889775 0.000302 0.000726 109.208298 9.178091 -12.955991 -2.638809 -0.000013 0.000951 -0.000001 -0.000001 0.000000 -8.076775 -0.486464 -3.805886 109.439138 29.747086 -40.926982 -3.600070 0.000249 -0.003399 108.657839 12.187839 -16.402781 -2.100028 0.000297 -0.005371 109.496402 9.295110 -12.796370 -2.115772 -0.000043 -0.003669 -0.000002 0.000001 -0.000005 4.570446 11.014691 -2.160851 -0.000018 0.000010 -0.000021 10.592511 -0.524563 -2.232373 54.026957 -67.316787 37.502168 27.841778 -0.000048 -0.000124 29.889779 -104.045815 37.753447 28.328825 -0.000014 0.000017 0.000019 -0.000089 -0.000000 2.466031 -1.576183 2.681890 -22.679010 126.591259 -25.028894 3.217742 -1.872046 1.916533 10.665969 -223.875200 287.881108 2.656054 -1.528782 1.514620 188.657516 22.613662 94.002869 2.020895 -1.154069 1.115144 0.000004 0.000006 0.000004 9.109324 -0.518051 2.259935 -187.523322 -21.194372 -218.788540 3.700112 0.000209 -0.000371 -222.740501 -17.881328 -316.149676 2.850054 0.000256 0.000238 -248.046407 -13.958893 -339.445621 2.774880 -0.000048 -0.000037 0.000003 -0.000002 0.000003 9.533487 0.000294 -0.000068 117.931481 -12.742198 21.012133 3.700016 0.000042 -0.000337 -319.576519 -5.901236 2.173311 2.950002 -0.000020 0.000044 -27.901896 -6.698905 -1.666373 2.952881 -0.000014 0.000070 0.000002 -0.000004 0.000003 9.104576 -0.042747 -1.865187 -65.722894 -170.998663 -166.102455 3.149971 0.000030 -0.000060 20.315001 25.344190 -4.613850 2.949996 0.000041 0.000189 -55.518124 12.418462 6.553750 2.644327 0.000031 0.000058 -0.000000 0.000001 -0.000001 8.077837 -0.486589 -3.806367 118.988234 -8.274500 14.915771 3.599892 0.000049 0.014580 28.987985 31.661137 -8.411137 2.100010 0.000034 0.007854 -57.145020 18.546112 9.864737 2.125489 0.000001 0.007508 0.000000 0.000002 -0.000000 -8.207786 -6.751667 -1.599560 -0.077001 -0.000003 0.000080 -0.000002 -44.370110 0.345938 0.153719 -0.000000 -0.000000 0.000000 -44.423679 -3.043532 -0.076700 0.000000 -0.000002 -0.000006 -8.728667 10.710559 -0.000009 -0.000000 -0.000000 -0.000001 -0.000679 9.278123 0.000000 -0.000000 -0.000000 8.207792 -6.751710 -1.599556 -0.074518 -0.000003 0.000081 -0.000002 -44.370014 0.346960 0.148822 0.000002 0.000000 -0.000001 -44.423664 -3.044403 -0.074314 0.000000 -0.000002 -0.000004 -8.728671 10.710558 0.000007 -0.000000 -0.000000 0.000000 -0.000680 9.278137 -0.000000 0.000000 -0.000001 
0.000006 104.270477 1.554256 0.000010 0.000003 -0.000113 -0.000005 10.181587 0.131522 0.000001 -0.000003 0.000084 -0.000000 9.893967 -1.470711 0.000001 0.000000 -0.000000 -0.000000 9.220802 -1.370642 0.000000 -0.000000 -0.000000 0.000001 16.740433 -2.049030 0.000000 -0.000000 -0.000000 0.000000 9.617859 1.685014 0.000000 0.000000 0.000000 0.000002 22.037384 7.501101 0.000000 -0.000000 0.000000 -4.569968 11.014880 -2.160881 0.000008 0.000001 -0.000038 -10.592758 -0.524847 -2.231728 80.582681 70.546934 -61.901246 -27.841486 -0.000016 0.000590 34.120951 104.042988 -42.919481 -28.328821 0.000021 0.000029 -0.000320 -0.000044 0.000007 -2.464424 -1.573691 2.682258 -55.191969 -167.178838 -30.039513 -3.214895 -1.872413 1.924645 125.230084 11.617691 119.299745 -2.654968 -1.527771 1.513008 153.802651 33.617064 18.793778 -2.018827 -1.152004 1.108038 -0.000002 -0.000002 0.000005 -9.108391 -0.517688 2.260307 135.216736 22.965529 -52.604659 -3.700093 0.000192 0.001660 127.950098 21.743946 -42.893615 -2.850124 0.000283 -0.000102 125.060559 17.826001 -33.570349 -2.772167 -0.000017 -0.000025 0.000000 0.000002 -0.000002 -9.532612 0.000184 0.000402 124.808730 22.309684 -41.616032 -3.700095 0.000295 0.004096 116.451747 14.966903 -23.789878 -2.950094 0.000314 -0.001675 115.231534 13.428382 -21.019282 -2.946637 0.000002 -0.000152 -0.000004 -0.000002 -0.000001 -9.103710 -0.042812 -1.864705 121.411735 22.657597 -39.221760 -3.379324 0.000319 -0.000723 115.089343 8.911634 -13.998404 -2.889771 0.000329 0.000729 115.380965 8.195819 -13.000415 -2.638808 -0.000011 0.000939 0.000002 -0.000002 0.000003 -8.076775 -0.486471 -3.805865 114.958668 29.750405 -44.989913 -3.600050 0.000247 -0.003377 118.755912 11.905156 -19.352965 -2.100049 0.000291 -0.005351 117.088717 8.878470 -14.088745 -2.115774 -0.000049 -0.003694 0.000001 -0.000001 -0.000004 4.570446 11.014691 -2.160851 -0.000018 0.000010 -0.000021 10.592509 -0.524557 -2.232372 54.278233 -68.353576 38.381083 27.841778 -0.000049 -0.000113 30.414201 -102.791390 37.603337 28.328838 -0.000044 0.000022 0.000019 -0.000089 -0.000000 2.465961 -1.576182 2.681875 -40.531220 137.027651 -0.948447 3.217709 -1.872060 1.916547 0.659077 -224.108192 300.451552 2.656069 -1.528775 1.514609 194.042054 22.647668 87.691822 2.020891 -1.154071 1.115155 0.000002 0.000008 0.000006 9.109362 -0.518016 2.259920 -189.164848 -19.862941 -229.260381 3.700104 0.000194 -0.000386 -224.609145 -19.268935 -314.996413 2.850076 0.000245 0.000230 -252.042614 -16.062189 -338.038575 2.774879 -0.000028 -0.000027 -0.000002 -0.000000 0.000003 9.533488 0.000271 -0.000063 116.246541 -14.474954 23.069282 3.700012 0.000021 -0.000323 -327.628848 -7.595245 2.206696 2.950012 -0.000016 0.000072 -31.798151 -7.561644 -2.157257 2.952867 -0.000015 0.000068 0.000001 -0.000001 -0.000000 9.104596 -0.042771 -1.865210 -64.675772 -169.407092 -163.335846 3.149975 0.000026 -0.000049 12.354760 22.309834 -2.445464 2.949994 0.000029 0.000185 -51.543418 13.694481 6.635137 2.644322 0.000016 0.000053 -0.000000 0.000001 0.000001 8.077842 -0.486589 -3.806392 120.121731 -9.023063 16.550071 3.599915 0.000034 0.014664 9.286496 29.682711 -2.546106 2.100021 0.000013 0.007820 -49.534578 20.452387 9.248350 2.125512 -0.000015 0.007501 0.000002 0.000002 0.000003 -8.207786 -6.751667 -1.599560 -0.077001 -0.000003 0.000080 -0.000002 -44.370110 0.345938 0.153719 -0.000000 -0.000000 0.000000 -44.423679 -3.043532 -0.076700 0.000000 -0.000002 -0.000006 -8.728667 10.710559 -0.000009 -0.000000 -0.000000 -0.000001 -0.000679 9.278123 0.000000 -0.000000 -0.000000 8.207792 -6.751710 -1.599556 -0.074518 -0.000003 0.000081 -0.000002 -44.370014 0.346960 0.148822 0.000002 0.000000 -0.000001 -44.423664 -3.044403 -0.074314 0.000000 -0.000002 -0.000004 -8.728671 10.710558 0.000007 -0.000000 -0.000000 0.000000 -0.000680 9.278137 -0.000000 0.000000 -0.000001 
0.000006 104.270477 1.554256 0.000010 0.000003 -0.000113 -0.000005 10.181587 0.131522 0.000001 -0.000003 0.000084 -0.000000 9.893967 -1.470711 0.000001 0.000000 -0.000000 -0.000000 9.220802 -1.370642 0.000000 -0.000000 -0.000000 0.000001 16.740433 -2.049030 0.000000 -0.000000 -0.000000 0.000000 9.617859 1.685014 0.000000 0.000000 0.000000 0.000002 22.037384 7.501101 0.000000 -0.000000 0.000000 -4.569968 11.014880 -2.160881 0.000008 0.000001 -0.000038 -10.592757 -0.524851 -2.231726 80.033343 69.996325 -60.898397 -27.841486 0.000000 0.000592 33.898789 104.325962 -42.847815 -28.328835 0.000021 0.000027 -0.000321 -0.000044 0.000006 -2.464384 -1.573768 2.682278 -51.925157 -158.359698 -19.750419 -3.214905 -1.872396 1.924638 125.037377 11.737910 118.012569 -2.654931 -1.527799 1.513000 153.462343 33.389404 17.769084 -2.018834 -1.151996 1.108068 -0.000003 -0.000001 0.000002 -9.108393 -0.517706 2.260305 136.746603 20.250044 -48.613294 -3.700080 0.000197 0.001696 130.056760 18.856467 -39.196260 -2.850104 0.000299 -0.000118 126.027864 15.758001 -30.405666 -2.772171 -0.000017 -0.000020 -0.000000 -0.000001 -0.000000 -9.532606 0.000189 0.000388 125.109832 18.803168 -35.643383 -3.700074 0.000285 0.004063 117.371296 12.541244 -20.320279 -2.950071 0.000346 -0.001724 115.567825 12.035388 -18.983251 -2.946623 0.000006 -0.000156 -0.000004 0.000001 0.000002 -9.103693 -0.042805 -1.864722 121.725459 17.958575 -31.572068 -3.379313 0.000318 -0.000736 114.869602 6.446706 -10.104715 -2.889759 0.000330 0.000730 114.052124 7.038596 -10.901237 -2.638816 -0.000026 0.000939 0.000000 0.000001 0.000003 -8.076768 -0.486442 -3.805889 113.734275 23.382835 -34.945157 -3.600055 0.000281 -0.003379 116.302043 8.349788 -12.829967 -2.100021 0.000295 -0.005364 114.725444 7.419069 -11.208460 -2.115767 -0.000012 -0.003685 0.000002 0.000000 -0.000004 4.570446 11.014691 -2.160851 -0.000018 0.000010 -0.000021 10.592512 -0.524557 -2.232374 55.274617 -67.973981 38.887293 27.841772 -0.000052 -0.000119 30.914495 -102.458636 37.995547 28.328840 -0.000029 0.000023 0.000022 -0.000088 -0.000001 2.466007 -1.576205 2.681861 -33.036170 130.294260 -11.271707 3.217688 -1.872066 1.916543 -5.794707 -223.783252 308.836784 2.656012 -1.528795 1.514631 177.884245 27.468639 113.073427 2.020914 -1.154070 1.115141 0.000003 0.000005 0.000002 9.109342 -0.518012 2.259929 -189.644300 -20.358444 -230.398782 3.700116 0.000226 -0.000373 -224.347385 -19.913043 -313.351676 2.850083 0.000241 0.000226 -248.595554 -16.323800 -336.252945 2.774878 -0.000044 -0.000022 -0.000003 0.000003 0.000000 9.533493 0.000306 -0.000049 118.144924 -14.603035 24.127875 3.700031 0.000016 -0.000334 -326.781467 -7.851772 2.344605 2.950019 -0.000002 0.000064 -31.380823 -7.937511 -2.233496 2.952872 -0.000015 0.000068 -0.000000 0.000000 0.000000 9.104593 -0.042747 -1.865185 -62.686978 -168.690742 -161.529288 3.149970 0.000033 -0.000056 13.843266 23.381227 -2.877991 2.949984 0.000020 0.000141 -47.354934 15.675508 6.907648 2.644310 0.000028 0.000070 0.000004 -0.000000 -0.000000 8.077849 -0.486569 -3.806374 121.940802 -9.957657 18.837829 3.599916 0.000022 0.014622 12.768767 30.168409 -3.525724 2.100008 0.000017 0.007773 -44.192704 22.243491 8.877181 2.125516 -0.000027 0.007511 0.000000 0.000000 -0.000002 -8.207786 -6.751667 -1.599560 -0.077001 -0.000003 0.000080 -0.000002 -44.370110 0.345938 0.153719 -0.000000 -0.000000 0.000000 -44.423679 -3.043532 -0.076700 0.000000 -0.000002 -0.000006 -8.728667 10.710559 -0.000009 -0.000000 -0.000000 -0.000001 -0.000679 9.278123 0.000000 -0.000000 -0.000000 8.207792 -6.751710 -1.599556 -0.074518 -0.000003 0.000081 -0.000002 -44.370014 0.346960 0.148822 0.000002 0.000000 -0.000001 -44.423664 -3.044403 -0.074314 0.000000 -0.000002 -0.000004 -8.728671 10.710558 0.000007 -0.000000 -0.000000 0.000000 -0.000680 9.278137 -0.000000 0.000000 -0.000001 
